<svg xmlns="http://www.w3.org/2000/svg" width="24.3" height="25" viewBox="0 0 24.3 25">
  <g id="Button" transform="translate(-26.5 -21.5)" opacity="0.75">
    <path id="view-thumb_88x76" data-name="view-thumb 88x76" d="M21.839,10H14.761A1.6,1.6,0,0,1,13.3,8.289V1.711A1.6,1.6,0,0,1,14.76,0h7.079A1.6,1.6,0,0,1,23.3,1.711V8.289A1.6,1.6,0,0,1,21.839,10Zm-13.3,0H1.461A1.6,1.6,0,0,1,0,8.289V1.711A1.6,1.6,0,0,1,1.46,0H8.539A1.6,1.6,0,0,1,10,1.711V8.289A1.6,1.6,0,0,1,8.539,10Z" transform="translate(27 22)" fill="none" stroke="#262e49" stroke-width="1"/>
    <path id="Path_1" data-name="Path 1" d="M-1.307,0h24" transform="translate(28 34)" fill="none" stroke="#262e49" stroke-width="1"/>
    <path id="Path" d="M8.54,10H1.461A1.6,1.6,0,0,1,0,8.289V1.711A1.6,1.6,0,0,1,1.46,0H8.539A1.6,1.6,0,0,1,10,1.711V8.289A1.6,1.6,0,0,1,8.54,10Z" transform="translate(27 36)" fill="none" stroke="#262e49" stroke-width="1"/>
    <path id="Path_2" data-name="Path 2" d="M0,0V10" transform="translate(49.3 36)" fill="none" stroke="#262e49" stroke-width="1"/>
    <line id="Line_2" data-name="Line 2" y2="4" transform="translate(44.903 36.286)" fill="none" stroke="#262e49" stroke-width="1"/>
    <line id="Line_3" data-name="Line 3" y2="4" transform="translate(44.903 42)" fill="none" stroke="#262e49" stroke-width="1"/>
    <line id="Line_1" data-name="Line 1" y2="10" transform="translate(39.939 36)" fill="none" stroke="#262e49" stroke-width="1"/>
  </g>
</svg>
