<svg xmlns="http://www.w3.org/2000/svg" width="24.5" height="22.528" viewBox="0 0 24.5 22.528">
  <g id="Message" transform="translate(0.25 0.25)">
    <g id="Icon">
      <g id="chat" opacity="0.497">
        <path id="Path_1" data-name="Path 1" d="M9.4,24.265h5.2a.4.4,0,0,0,0-.8H9.4a.4.4,0,0,0,0,.8Z" transform="translate(-5.4 -15.065)" fill="#262e49" stroke="#262e49" stroke-width="0.5"/>
        <path id="Path_2" data-name="Path 2" d="M19.8,29.465H9.4a.4.4,0,0,0,0,.8H19.8a.4.4,0,0,0,0-.8Z" transform="translate(-5.4 -18.665)" fill="#262e49" stroke="#262e49" stroke-width="0.5"/>
        <path id="Path_3" data-name="Path 3" d="M19.8,35.465H9.4a.4.4,0,1,0,0,.8H19.8a.4.4,0,1,0,0-.8Z" transform="translate(-5.4 -22.265)" fill="#262e49" stroke="#262e49" stroke-width="0.5"/>
        <path id="Path_4" data-name="Path 4" d="M21.629,2.493,7.972,2.465A2.375,2.375,0,0,0,5.6,4.837v2.05l-3.228.007A2.375,2.375,0,0,0,0,9.265v8.456a2.374,2.374,0,0,0,2.372,2.372H4.8v4a.4.4,0,0,0,.7.269l3.882-4.27,6.65-.027A2.375,2.375,0,0,0,18.4,17.694v-.045l2.1,2.314a.4.4,0,0,0,.7-.269v-4h.428A2.375,2.375,0,0,0,24,13.322V4.865A2.375,2.375,0,0,0,21.629,2.493ZM17.6,17.693a1.574,1.574,0,0,1-1.574,1.572L9.2,19.293a.4.4,0,0,0-.294.131L5.6,23.059V19.693a.4.4,0,0,0-.4-.4H2.372A1.574,1.574,0,0,1,.8,17.721V9.265A1.574,1.574,0,0,1,2.373,7.693L6,7.685H6l10.027-.021A1.574,1.574,0,0,1,17.6,9.237v8.457Zm5.6-4.372a1.573,1.573,0,0,1-1.572,1.572H20.8a.4.4,0,0,0-.4.4v3.366l-2-2.2V9.237a2.375,2.375,0,0,0-2.373-2.372L6.4,6.885V4.837A1.574,1.574,0,0,1,7.971,3.265l13.656.028h0A1.574,1.574,0,0,1,23.2,4.865v8.457Z" transform="translate(0 -2.465)" fill="#262e49" stroke="#262e49" stroke-width="0.5"/>
      </g>
    </g>
  </g>
</svg>
