<svg xmlns="http://www.w3.org/2000/svg" width="15" height="15" viewBox="0 0 15 15">
  <path id="Fill_174" data-name="Fill 174" d="M7.5,15C3.364,15,0,12.9,0,10.312a3.681,3.681,0,0,1,1.5-2.8V3.75C1.5,1.682,4.192,0,7.5,0s6,1.682,6,3.75V7.509a3.681,3.681,0,0,1,1.5,2.8C15,12.9,11.636,15,7.5,15Zm0-8.437c-3.308,0-6,1.682-6,3.75s2.692,3.75,6,3.75,6-1.682,6-3.75C13.5,8.315,10.7,6.563,7.5,6.563ZM7.5.937C5.019.937,3,2.2,3,3.75V6.569a10.661,10.661,0,0,1,4.5-.944,10.654,10.654,0,0,1,4.5.943V3.75C12,2.2,9.981.937,7.5.937Zm0,11.25c-.414,0-.75-.21-.75-.469V9.843c0-.258.336-.469.75-.469s.75.21.75.469v1.875C8.25,11.977,7.914,12.187,7.5,12.187Z" fill="#131314"/>
</svg>
