<svg xmlns="http://www.w3.org/2000/svg" width="15" height="15" viewBox="0 0 15 15">
  <path id="Fill_179" data-name="Fill 179" d="M2.874,15h0a1.577,1.577,0,0,1-1.166-.488L.319,13.126A1.081,1.081,0,0,1,0,12.29a.729.729,0,0,1,.316-.552L3.1,9.656a1.382,1.382,0,0,1,.76-.264.861.861,0,0,1,.628.264l.822.821a27.715,27.715,0,0,0,3-2.556A23.912,23.912,0,0,0,10.544,5.3l-.85-.85a1.041,1.041,0,0,1,0-1.387L11.777.288a.982.982,0,0,1,1.389,0l1.389,1.388c.742.741.416,1.634.039,2.668l-.039.107a33.08,33.08,0,0,1-4.378,5.72,29.9,29.9,0,0,1-5.691,4.342A3.593,3.593,0,0,1,2.874,15Zm.833-4.5a.88.88,0,0,0-.483.168L1.456,11.99c-.3.257-.131.664,0,.883l.883.883a1.161,1.161,0,0,0,.752.187,1.675,1.675,0,0,0,.7-.124,38.808,38.808,0,0,0,5.9-4.511A29.107,29.107,0,0,0,13.86,3.757c.17-.34.294-1.115-.063-1.451l-.884-.883a.689.689,0,0,0-.476-.215.5.5,0,0,0-.408.215L10.7,3.189a.662.662,0,0,0,0,.883l1.115,1.115a23.993,23.993,0,0,1-6.562,6.524l0,0-.058.04L4.107,10.665A.549.549,0,0,0,3.707,10.5Z" transform="translate(0 0)" fill="#131314"/>
</svg>
