<svg xmlns="http://www.w3.org/2000/svg" width="24" height="24" viewBox="0 0 24 24">
  <path id="ic_profile" d="M317,26.108a12,12,0,1,0,12-12A12.016,12.016,0,0,0,317,26.108Zm5.016,8.22a33.144,33.144,0,0,1,3.741-2.185.786.786,0,0,0,.443-.709V29.928a.606.606,0,0,0-.084-.305,5.147,5.147,0,0,1-.625-1.841.6.6,0,0,0-.433-.487,3.265,3.265,0,0,1-.438-1.073,2.743,2.743,0,0,1-.153-1,.6.6,0,0,0,.566-.8,3.434,3.434,0,0,1-.084-2.053,4,4,0,0,1,1.073-1.87,5.159,5.159,0,0,1,1.014-.837s.015-.01.02-.015a3.788,3.788,0,0,1,.95-.487h.005a3.04,3.04,0,0,1,.852-.157,3.533,3.533,0,0,1,2.166.458,2.6,2.6,0,0,1,.98.886.608.608,0,0,0,.492.325.912.912,0,0,1,.512.364c.286.379.689,1.363.2,3.741a.6.6,0,0,0,.32.66,2.418,2.418,0,0,1-.143,1.044,3.841,3.841,0,0,1-.389,1,.627.627,0,0,0-.315.039.606.606,0,0,0-.359.448,5.593,5.593,0,0,1-.458,1.477.611.611,0,0,0-.059.261v1.742a.777.777,0,0,0,.443.709,33.074,33.074,0,0,1,3.741,2.185,10.753,10.753,0,0,1-13.974-.01ZM329,15.314a10.788,10.788,0,0,1,7.88,18.162,34.452,34.452,0,0,0-3.869-2.3V29.829a6.244,6.244,0,0,0,.394-1.167c.482-.182.822-.743,1.142-1.87q.436-1.543-.079-2.166c.359-1.974.2-3.431-.487-4.332a2.1,2.1,0,0,0-1.053-.768,3.868,3.868,0,0,0-1.289-1.122,4.713,4.713,0,0,0-2.845-.615,4.287,4.287,0,0,0-1.162.222h-.005a4.97,4.97,0,0,0-1.235.63,6.644,6.644,0,0,0-1.23,1.014,5.091,5.091,0,0,0-1.373,2.412,4.592,4.592,0,0,0-.054,2.146,1,1,0,0,0-.182.172c-.354.428-.384,1.113-.089,2.161a3.351,3.351,0,0,0,.9,1.737,6.337,6.337,0,0,0,.635,1.8v1.093a34.923,34.923,0,0,0-3.869,2.3,10.758,10.758,0,0,1-2.919-7.368,10.925,10.925,0,0,1,4.466-8.739A10.518,10.518,0,0,1,329,15.314Z" transform="translate(-317 -14.108)" fill="#9fa2ae" fill-rule="evenodd"/>
</svg>
