<svg xmlns="http://www.w3.org/2000/svg" xmlns:xlink="http://www.w3.org/1999/xlink" width="64" height="64" viewBox="0 0 64 64">
  <defs>
    <filter id="椭圆_11" x="0" y="0" width="64" height="64" filterUnits="userSpaceOnUse">
      <feOffset dy="2" input="SourceAlpha"/>
      <feGaussianBlur stdDeviation="3" result="blur"/>
      <feFlood flood-color="#262e49" flood-opacity="0.051"/>
      <feComposite operator="in" in2="blur"/>
      <feComposite in="SourceGraphic"/>
    </filter>
  </defs>
  <g id="Message" transform="translate(1.649)">
    <g id="Select">
      <g id="椭圆_10" data-name="椭圆 10" transform="translate(0.351)" fill="none" stroke="#fafafc" stroke-width="25">
        <circle cx="30" cy="30" r="30" stroke="none"/>
        <circle cx="30" cy="30" r="17.5" fill="none"/>
      </g>
      <g transform="matrix(1, 0, 0, 1, -1.65, 0)" filter="url(#椭圆_11)">
        <circle id="椭圆_11-2" data-name="椭圆 11" cx="23" cy="23" r="23" transform="translate(9 7)" fill="#b0bcb2"/>
      </g>
    </g>
    <g id="Icon" transform="translate(18.532 19)">
      <g id="chat">
        <path id="路径_1" data-name="路径 1" d="M9.4,24.265h5.2a.4.4,0,0,0,0-.8H9.4a.4.4,0,0,0,0,.8Z" transform="translate(-5.4 -15.065)" fill="#fff" stroke="#fff" stroke-width="0.5"/>
        <path id="路径_2" data-name="路径 2" d="M19.8,29.465H9.4a.4.4,0,0,0,0,.8H19.8a.4.4,0,0,0,0-.8Z" transform="translate(-5.4 -18.665)" fill="#fff" stroke="#fff" stroke-width="0.5"/>
        <path id="路径_3" data-name="路径 3" d="M19.8,35.465H9.4a.4.4,0,1,0,0,.8H19.8a.4.4,0,1,0,0-.8Z" transform="translate(-5.4 -22.265)" fill="#fff" stroke="#fff" stroke-width="0.5"/>
        <path id="路径_4" data-name="路径 4" d="M21.629,2.493,7.972,2.465A2.375,2.375,0,0,0,5.6,4.837v2.05l-3.228.007A2.375,2.375,0,0,0,0,9.265v8.456a2.374,2.374,0,0,0,2.372,2.372H4.8v4a.4.4,0,0,0,.7.269l3.882-4.27,6.65-.027A2.375,2.375,0,0,0,18.4,17.694v-.045l2.1,2.314a.4.4,0,0,0,.7-.269v-4h.428A2.375,2.375,0,0,0,24,13.322V4.865A2.375,2.375,0,0,0,21.629,2.493ZM17.6,17.693a1.574,1.574,0,0,1-1.574,1.572L9.2,19.293a.4.4,0,0,0-.294.131L5.6,23.059V19.693a.4.4,0,0,0-.4-.4H2.372A1.574,1.574,0,0,1,.8,17.721V9.265A1.574,1.574,0,0,1,2.373,7.693L6,7.685H6l10.027-.021A1.574,1.574,0,0,1,17.6,9.237v8.457Zm5.6-4.372a1.573,1.573,0,0,1-1.572,1.572H20.8a.4.4,0,0,0-.4.4v3.366l-2-2.2V9.237a2.375,2.375,0,0,0-2.373-2.372L6.4,6.885V4.837A1.574,1.574,0,0,1,7.971,3.265l13.656.028h0A1.574,1.574,0,0,1,23.2,4.865v8.457Z" transform="translate(0 -2.465)" fill="#fff" stroke="#fff" stroke-width="0.5"/>
      </g>
    </g>
  </g>
</svg>
